<svg width="28" height="28" viewBox="0 0 28 28" fill="none" xmlns="http://www.w3.org/2000/svg">
<path d="M25.6673 20.4167H2.33398" stroke="#04B9E8" stroke-width="2.2" stroke-linecap="round" stroke-linejoin="round"/>
<path d="M25.6673 24.5V18.6667C25.6673 16.4668 25.6673 15.3668 24.9839 14.6834C24.3005 14 23.2005 14 21.0007 14H7.00065C4.80076 14 3.70082 14 3.0174 14.6834C2.33398 15.3668 2.33398 16.4668 2.33398 18.6667V24.5" stroke="#04B9E8" stroke-width="2.2" stroke-linecap="round" stroke-linejoin="round"/>
<path d="M18.6673 14V12.3874C18.6673 11.7953 18.5605 11.5973 18.0135 11.3639C16.8743 10.8779 15.4915 10.5 14.0007 10.5C12.5098 10.5 11.127 10.8779 9.98779 11.3639C9.44078 11.5973 9.33398 11.7953 9.33398 12.3874L9.33398 14" stroke="#04B9E8" stroke-width="2.2" stroke-linecap="round"/>
<path d="M23.3346 14V8.58733C23.3346 7.78041 23.3346 7.37696 23.1354 6.99595C22.9361 6.61494 22.6522 6.41773 22.0844 6.0233C19.7951 4.43307 17.008 3.5 14.0013 3.5C10.9946 3.5 8.20753 4.43307 5.9182 6.0233C5.35038 6.41773 5.06647 6.61494 4.86722 6.99595C4.66797 7.37696 4.66797 7.78041 4.66797 8.58733V14" stroke="#04B9E8" stroke-width="2.2" stroke-linecap="round"/>
</svg>
